<svg xmlns="http://www.w3.org/2000/svg" viewBox="0 0 512 512" width="512" height="512">
  <!-- Sfondo verde -->
  <rect width="512" height="512" fill="#10b981" rx="80"/>
  
  <!-- Simbolo riciclo bianco -->
  <path d="M184 256c0-13.3 10.7-24 24-24h96c13.3 0 24 10.7 24 24v96c0 13.3-10.7 24-24 24h-96c-13.3 0-24-10.7-24-24v-96z" fill="#ffffff" opacity="0.3"/>
  
  <!-- Frecce riciclo -->
  <g fill="#ffffff" stroke="#ffffff" stroke-width="12" stroke-linecap="round" stroke-linejoin="round">
    <path d="M256 140 L320 200 L256 200 L256 140 M320 200 L340 190" transform="rotate(0 256 256)"/>
    <path d="M256 140 L320 200 L256 200 L256 140 M320 200 L340 190" transform="rotate(120 256 256)"/>
    <path d="M256 140 L320 200 L256 200 L256 140 M320 200 L340 190" transform="rotate(240 256 256)"/>
  </g>
  
  <!-- Testo -->
  <text x="256" y="420" font-family="Arial, sans-serif" font-size="60" font-weight="bold" fill="#ffffff" text-anchor="middle">SmartWaste</text>
</svg>